<svg xmlns="http://www.w3.org/2000/svg" width="56" height="56" viewBox="0 0 57 57"><g fill="none" fill-rule="evenodd"><path stroke="#79B8FF" stroke-linecap="round" stroke-width="2" d="M38.967 46.183h-3"/><path stroke="#2088FF" stroke-width="2" d="M39.397 29.677h-6.203"/><path fill="#79B8FF" d="M26 46.03a1 1 0 1 1-2 0 1 1 0 0 1 2 0zM29.5 46.03a1 1 0 1 1-2 0 1 1 0 0 1 2 0z"/><path stroke="#2088FF" stroke-linecap="round" stroke-width="2" d="M26.8 40.06c3.204 0 5.8 2.672 5.8 5.97 0 3.297-2.596 5.97-5.8 5.97-3.203 0-5.8-2.673-5.8-5.97 0-3.298 2.597-5.97 5.8-5.97zM45.33 23.643c3.202 0 5.8 2.673 5.8 5.97 0 3.297-2.598 5.97-5.8 5.97-3.204 0-5.801-2.673-5.801-5.97 0-3.297 2.597-5.97 5.8-5.97zM13.486 4C18.188 4 22 7.923 22 12.764c0 4.84-3.812 8.762-8.514 8.762s-8.514-3.922-8.514-8.762S8.784 4 13.486 4zM26.8 23.643c3.204 0 5.8 2.673 5.8 5.97 0 3.297-2.596 5.97-5.8 5.97-3.203 0-5.8-2.673-5.8-5.97 0-3.297 2.597-5.97 5.8-5.97z"/><path stroke="#2088FF" stroke-linecap="round" stroke-linejoin="round" stroke-width="2" d="M28.95 28.124l-2.899 2.98-1.452-1.488M47.48 28.124l-2.9 2.98-1.452-1.488"/><path stroke="#79B8FF" stroke-linecap="round" stroke-width="2" d="M45.33 40.06c3.202 0 5.8 2.672 5.8 5.97 0 3.297-2.598 5.97-5.8 5.97-3.204 0-5.801-2.673-5.801-5.97 0-3.298 2.597-5.97 5.8-5.97z"/><path stroke="#2088FF" stroke-width="2" d="M17.002 13.636l-4.846 2.86a1 1 0 0 1-1.508-.86V9.914a1 1 0 0 1 1.508-.861l4.846 2.86a1 1 0 0 1 0 1.722zM13 21v.81a7.803 7.803 0 0 0 7.803 7.803"/><path stroke="#2088FF" stroke-width="2" d="M13 21.693V39.01a7.803 7.803 0 0 0 7.803 7.803"/></g></svg>