<svg xmlns="http://www.w3.org/2000/svg" xmlns:svg="http://www.w3.org/2000/svg" id="svg2" width="71.72" height="67.333" version="1.1" viewBox="0 0 71.72 67.333" xml:space="preserve"><metadata id="metadata8"/><g id="g10" transform="matrix(1.3333333,0,0,-1.3333333,0,67.333333)"><g id="g12" transform="scale(0.1)"><path d="m 361.078,505.035 c -105.777,0 -176.773,-61.574 -176.773,-181.121 v -85.187 c 10.386,4.953 21.965,7.816 34.218,7.816 12.415,0 24.122,-2.934 34.606,-8 v 85.371 c 0,77.524 42.75,117.375 107.949,117.375 65.203,0 107.957,-39.851 107.957,-117.375 V 137.715 h 68.82 v 186.199 c 0,120.262 -70.996,181.121 -176.777,181.121" style="fill:#100f0d;fill-opacity:1;fill-rule:nonzero;stroke:none" id="path14"/><path d="m 215.793,225.02 c -13.297,0 -25.531,-4.473 -35.402,-11.934 l -64.813,44.273 c 1.434,5.079 2.25,10.411 2.25,15.942 0,32.476 -26.4335,58.914 -58.9139,58.914 C 26.4297,332.215 0,305.777 0,273.301 c 0,-32.492 26.4297,-58.918 58.9141,-58.918 13.2968,0 25.539,4.48 35.4062,11.941 l 64.8087,-44.285 c -1.426,-5.078 -2.246,-10.41 -2.246,-15.937 0,-5.528 0.82,-10.848 2.246,-15.926 L 94.3203,105.887 C 84.4531,113.348 72.2109,117.828 58.9141,117.828 26.4297,117.828 0,91.4023 0,58.9141 0,26.4258 26.4297,-0.00390625 58.9141,-0.00390625 c 32.4804,0 58.9139,26.42970625 58.9139,58.91800625 0,5.5273 -0.816,10.8593 -2.25,15.9375 l 64.813,44.2774 c 9.871,-7.461 22.105,-11.934 35.402,-11.934 32.484,0 58.918,26.426 58.918,58.907 0,32.492 -26.434,58.918 -58.918,58.918" style="fill:#4f7dc8;fill-opacity:1;fill-rule:nonzero;stroke:none" id="path16"/></g></g></svg>